# xmcd
#
# Track frame offsets:
#	182
#	7852
#	26330
#	39875
#	56875
#	72427
#	85097
#	95920
#	115165
#	130847
#	139392
#
# Disc length: 2065 seconds
#
# Revision: 6
# Processed by: cddbd v1.5.2PL0 Copyright (c) Steve Scherf et al.
# Submitted via: audiograbber 1.83.01
#
DISCID=90080f0b
DTITLE=Willie Nelson - Phases and Stages
DYEAR=1974
DGENRE=Country
TTITLE0=Washing The Dishes
TTITLE1=Walkin'
TTITLE2=Pretend I Never Happened
TTITLE3=Sister's Coming Home - Down At The Corner Beer Joint
TTITLE4=(How Will I Know?) I'm Falling In Love Again
TTITLE5=Bloody Mary Morning
TTITLE6=No Love Around
TTITLE7=I Still Can't Believe You're Gone
TTITLE8=It's Not Supposed To Be That Way
TTITLE9=Heaven and Hell
TTITLE10=Pick Up The Tempo
EXTD=YEAR: 1974
EXTT0=
EXTT1=
EXTT2=
EXTT3=
EXTT4=
EXTT5=
EXTT6=
EXTT7=
EXTT8=
EXTT9=
EXTT10=
PLAYORDER=
